Coordinates
version=1
nRows=14
nColumns=42
inDegrees=yes

Units are S.I. units (second, meters, Newtons, ...)
If the header above contains a line with 'inDegrees', this indicates whether rotational values are in degrees (yes) or radians (no).

endheader
time	pelvis_tilt	pelvis_list	pelvis_rotation	pelvis_tx	pelvis_ty	pelvis_tz	hip_flexion_r	hip_adduction_r	hip_rotation_r	knee_angle_r	knee_adduction_r	knee_angle_r_beta	ankle_angle_r	subtalar_angle_r	mtp_angle_r	hip_flexion_l	hip_adduction_l	hip_rotation_l	knee_angle_l	knee_adduction_l	knee_angle_l_beta	ankle_angle_l	subtalar_angle_l	mtp_angle_l	lumbar_extension	lumbar_bending	lumbar_rotation	arm_flex_r	arm_add_r	arm_rot_r	elbow_flex_r	pro_sup_r	wrist_flex_r	wrist_dev_r	arm_flex_l	arm_add_l	arm_rot_l	elbow_flex_l	pro_sup_l	wrist_flex_l	wrist_dev_l
      0.22000000	     11.10564840	     -7.13628594	     -0.74297494	     -1.76364914	      0.84345799	      0.29639826	      8.78869513	      2.56724615	    -23.99370935	     25.61739926	     -5.91786242	      0.44710796	      2.80681726	      7.46958833	     -9.49045539	    -12.34666220	     -8.85740102	    -23.83443792	     22.89099711	     -4.35054100	      0.39952327	     24.25375120	     30.05376133	     -9.49045539	    -30.36620387	      6.56748233	     -0.73580559	    -11.55352058	     -0.10592353	    -11.09117620	    105.14451972	     90.00000001	      0.00000000	      0.00000000	     -3.54117579	    -12.77311224	    -20.36609575	     48.63656154	     90.00000001	      0.00000000	      0.00000000
      0.23000000	     11.08189432	     -7.09764730	     -0.46549573	     -1.75964704	      0.84270543	      0.29806739	      8.24449318	      2.82204040	    -24.13444658	     25.18272626	     -5.83461335	      0.43952149	      3.52733966	      7.11521656	     -9.45995541	    -12.57144668	     -9.00024574	    -23.52407469	     22.90391350	     -4.36656964	      0.39974870	     24.51432415	     29.98631178	     -9.45995541	    -30.19758711	      6.67124464	     -0.70840053	    -11.46103611	     -0.13900828	    -11.00155936	    105.09952696	     90.00000001	      0.00000000	      0.00000000	     -3.60741299	    -12.74403064	    -20.59548236	     48.52776355	     90.00000001	      0.00000000	      0.00000000
      0.24000000	     10.99198609	     -7.04448218	     -0.21022191	     -1.75562801	      0.84191705	      0.29970401	      7.77029744	      3.02732803	    -24.19698997	     24.75206901	     -5.73733767	      0.43200510	      4.22269326	      6.76808645	     -9.43450542	    -12.69708304	     -9.12347987	    -23.32889195	     22.92940642	     -4.44393831	      0.40019364	     24.72923404	     29.95837005	     -9.43450542	    -29.96671789	      6.79070274	     -0.65783092	    -11.35696402	     -0.20344668	    -10.91202900	    105.04036149	     90.00000001	      0.00000000	      0.00000000	     -3.67745035	    -12.68962111	    -20.78927434	     48.42312221	     90.00000001	      0.00000000	      0.00000000
      0.25000000	     10.82101993	     -6.92086017	     -0.10404653	     -1.75165883	      0.84099636	      0.30147790	      7.55625723	      3.06181902	    -24.24984132	     24.67956761	     -5.68790912	      0.43073971	      4.32603070	      6.72218013	     -9.43238725	    -12.76837702	     -9.14540117	    -23.28103142	     22.95386517	     -4.51956984	      0.40062052	     24.75179792	     29.95500343	     -9.43238725	    -29.66217465	      6.76408885	     -0.50121132	    -11.26111733	     -0.21423049	    -10.89034812	    105.05646943	     90.00000001	      0.00000000	      0.00000000	     -3.74997534	    -12.67987756	    -20.81509105	     48.39692062	     90.00000001	      0.00000000	      0.00000000
      0.26000000	     10.76567000	     -7.06452847	      0.17702334	     -1.74756517	      0.84032698	      0.30328443	      6.87638099	      3.50587032	    -24.16740891	     23.89233627	     -5.48199372	      0.41699993	      5.71384622	      6.32154621	     -9.39930925	    -12.94036290	     -9.51983290	    -22.96429944	     23.02438395	     -4.52134033	      0.40185131	     25.21832776	     29.92606768	     -9.39930925	    -29.50069952	      7.08675593	     -0.48016339	    -11.00998980	     -0.31752025	    -10.72476430	    104.92434744	     90.00000001	      0.00000000	      0.00000000	     -3.85056975	    -12.59018049	    -21.12587493	     48.19221046	     90.00000001	      0.00000000	      0.00000000
      0.27000000	     10.59745021	     -7.11127933	      0.31548730	     -1.74356356	      0.83951501	      0.30515856	      6.50341664	      3.74167373	    -24.08534939	     23.49212262	     -5.34682607	      0.41001489	      6.42966007	      6.26552644	     -9.36763918	    -12.99100774	     -9.73098290	    -22.80556900	     23.09871852	     -4.60360884	      0.40314869	     25.48465150	     29.86260557	     -9.36763918	    -29.23748471	      7.25815069	     -0.37759966	    -10.81154164	     -0.39917064	    -10.62027408	    104.87478975	     90.00000001	      0.00000000	      0.00000000	     -3.91860031	    -12.50258590	    -21.42205955	     48.04527653	     90.00000001	      0.00000000	      0.00000000
      0.28000000	     10.36908785	     -7.11494344	      0.34079840	     -1.73962272	      0.83866701	      0.30709699	      6.29122661	      3.81385325	    -24.16917201	     23.30786643	     -5.18906895	      0.40679901	      6.66198612	      6.27463886	     -9.36205645	    -12.98989032	     -9.81747421	    -22.69709687	     23.12934478	     -4.77380456	      0.40368322	     25.53895099	     29.84277984	     -9.36205645	    -28.94166183	      7.34652365	     -0.15820174	    -10.60552649	     -0.43908539	    -10.60054344	    104.90724513	     90.00000001	      0.00000000	      0.00000000	     -4.03849259	    -12.46834445	    -21.48602362	     47.98846382	     90.00000001	      0.00000000	      0.00000000
      0.29000000	     10.16929580	     -7.31413529	      0.49382683	     -1.73565765	      0.83787525	      0.30910199	      5.90602758	      4.24244004	    -23.97645017	     22.76280471	     -5.10999375	      0.39728589	      7.71919723	      6.66886051	     -9.33591967	    -12.95469588	    -10.25185881	    -22.50307123	     23.35490298	     -4.80807792	      0.40761995	     25.90198177	     29.68433402	     -9.33591967	    -28.67034806	      7.68071999	     -0.14434176	    -10.34640284	     -0.51097273	    -10.54870871	    104.84829072	     90.00000001	      0.00000000	      0.00000000	     -4.11567103	    -12.37501824	    -21.76615121	     47.81777823	     90.00000001	      0.00000000	      0.00000000
      0.30000000	      9.92207022	     -7.44566650	      0.54091732	     -1.73179544	      0.83707226	      0.31116673	      5.68865137	      4.47809320	    -23.99392002	     22.48569029	     -5.03666868	      0.39244933	      8.55098905	      7.55344098	     -9.29826413	    -12.87058153	    -10.54814060	    -22.38990231	     23.55072498	     -4.90833415	      0.41103769	     26.23442425	     29.44522972	     -9.29826413	    -28.39861308	      7.89894329	      0.00781734	    -10.08524305	     -0.56585946	    -10.49664695	    104.81474930	     90.00000001	      0.00000000	      0.00000000	     -4.15257187	    -12.25178004	    -22.16252219	     47.63699831	     90.00000001	      0.00000000	      0.00000000
      0.31000000	      9.67816448	     -7.51645690	      0.47081065	     -1.72800421	      0.83631851	      0.31326821	      5.54471478	      4.54102225	    -24.08475579	     22.40700652	     -4.86946215	      0.39107604	      8.71448252	      7.72018162	     -9.29303251	    -12.83832445	    -10.65919701	    -22.26256030	     23.62237343	     -5.12611980	      0.41228819	     26.25888770	     29.40770219	     -9.29303251	    -28.15970529	      8.02264165	      0.24962253	     -9.83212159	     -0.58699177	    -10.48360939	    104.86855820	     90.00000001	      0.00000000	      0.00000000	     -4.25870881	    -12.22826285	    -22.22747391	     47.58808401	     90.00000001	      0.00000000	      0.00000000
      0.32000000	      9.34143616	     -7.76796528	      0.52261907	     -1.72429477	      0.83548598	      0.31536036	      5.42334584	      4.87208071	    -24.06839836	     22.10866754	     -4.72384465	      0.38586904	      9.41593668	      8.55290760	     -9.27675219	    -12.55174731	    -11.09970045	    -22.15458761	     23.99283549	     -5.31630780	      0.41875398	     26.43855757	     29.17668904	     -9.27675219	    -27.81473917	      8.39174129	      0.29083475	     -9.46470434	     -0.67904390	    -10.53933615	    104.93148636	     90.00000001	      0.00000000	      0.00000000	     -4.32642118	    -12.08532036	    -22.39346071	     47.47962181	     90.00000001	      0.00000000	      0.00000000
      0.33000000	      9.10469707	     -7.84834497	      0.47469017	     -1.72048880	      0.83469164	      0.31759217	      5.41647342	      4.80286046	    -25.58094268	     22.21957492	     -5.05670269	      0.38780474	     11.10527113	     13.45963782	     -9.12945536	    -12.42928109	    -11.28930020	    -21.89520252	     24.33977618	     -5.44783650	      0.42480923	     26.75323511	     28.44763906	     -9.12945536	    -27.58079227	      8.51358317	      0.44628307	     -9.27417758	     -0.60639724	    -10.57663049	    104.90100639	     90.00000001	      0.00000000	      0.00000000	     -4.21820058	    -11.85785506	    -23.67536141	     47.12875281	     90.00000001	      0.00000000	      0.00000000
      0.34000000	      8.85725798	     -7.97023011	      0.33556995	     -1.71694825	      0.83406486	      0.31979951	      5.30932357	      4.90183655	    -25.62961070	     22.17640349	     -4.88041982	      0.38705126	     11.22830666	     13.60617003	     -9.12442239	    -12.31749711	    -11.43642954	    -21.75358674	     24.53780057	     -5.72963096	      0.42826541	     26.74563694	     28.40913261	     -9.12442239	    -27.42978219	      8.66643650	      0.67311134	     -9.00931791	     -0.62983241	    -10.57897999	    104.96117001	     90.00000001	      0.00000000	      0.00000000	     -4.32212442	    -11.82348221	    -23.70306082	     47.09825406	     90.00000001	      0.00000000	      0.00000000
      0.35000000	      8.36692187	     -8.26712868	      0.23241028	     -1.71352986	      0.83314209	      0.32216518	      5.47409428	      5.29863814	    -25.81561621	     22.01107675	     -4.93279032	      0.38416576	     11.97708142	     15.09935822	     -9.09081946	    -11.67347322	    -11.96651928	    -21.80841496	     25.35326767	     -5.97999300	      0.44249800	     26.97314405	     27.95733898	     -9.09081946	    -26.98595406	      9.02521201	      0.81962443	     -8.76828441	     -0.60888046	    -10.71594433	    104.98611070	     90.00000001	      0.00000000	      0.00000000	     -4.40139353	    -11.74582754	    -23.87937999	     47.02578789	     90.00000001	      0.00000000	      0.00000000
